<?xml version="1.0" encoding="UTF-8" standalone="no"?>
<svg width="180px" height="180px" viewBox="0 0 180 180" version="1.1" xmlns="http://www.w3.org/2000/svg" xmlns:xlink="http://www.w3.org/1999/xlink">
    <!-- Generator: Sketch 3.7.2 (28276) - http://www.bohemiancoding.com/sketch -->
    <title>apple-icon-180x180 copy 3</title>
    <desc>Created with Sketch.</desc>
    <defs></defs>
    <g id="Page-1" stroke="none" stroke-width="1" fill="none" fill-rule="evenodd">
        <g id="apple-icon-180x180-copy-3" fill="#FFFFFF">
            <path d="M64.7726199,161.914954 L18.002878,161.914954 C13.5830105,161.914954 10,158.329794 10,153.912076 L10,9.91783211 C10,8.6138171 10.3120723,7.38264677 10.8655261,6.29484643 C32.8936742,37.0696839 61.4040362,66.4813725 89.9143995,66.4813725 C118.467491,66.4813725 147.020584,36.9814596 169.062274,6.15647112 C169.660756,7.27796816 170,8.55848634 170,9.91783211 L170,153.912076 C170,158.331944 166.41484,161.914954 161.997122,161.914954 L113.905066,161.914954 C111.476107,150.579187 101.399992,142.080243 89.338843,142.080243 C77.2776937,142.080243 67.2015791,150.579187 64.7726199,161.914954 Z M133.636364,134.146359 C140.574156,134.146359 146.198347,124.674036 146.198347,112.989334 C146.198347,101.304632 140.574156,91.8323095 133.636364,91.8323095 C126.698572,91.8323095 121.07438,101.304632 121.07438,112.989334 C121.07438,124.674036 126.698572,134.146359 133.636364,134.146359 Z M47.6859504,134.146359 C54.6237423,134.146359 60.2479339,124.674036 60.2479339,112.989334 C60.2479339,101.304632 54.6237423,91.8323095 47.6859504,91.8323095 C40.7481585,91.8323095 35.1239669,101.304632 35.1239669,112.989334 C35.1239669,124.674036 40.7481585,134.146359 47.6859504,134.146359 Z M89.338843,172.892117 C76.6982423,172.892117 74.7933884,172.162421 74.7933884,167.20421 C74.7933884,159.170978 81.3056103,152.658756 89.338843,152.658756 C97.3720757,152.658756 103.884298,159.170978 103.884298,167.20421 C103.884298,172.162421 101.979444,172.892117 89.338843,172.892117 Z" id="Combined-Shape"></path>
        </g>
    </g>
</svg>