<?xml version="1.0" encoding="UTF-8" standalone="no"?>
<svg width="180px" height="180px" viewBox="0 0 180 180" version="1.1" xmlns="http://www.w3.org/2000/svg" xmlns:xlink="http://www.w3.org/1999/xlink">
    <!-- Generator: Sketch 3.7.2 (28276) - http://www.bohemiancoding.com/sketch -->
    <title>apple-icon-180x180 copy 3</title>
    <desc>Created with Sketch.</desc>
    <defs></defs>
    <g id="Page-1" stroke="none" stroke-width="1" fill="none" fill-rule="evenodd">
        <g id="apple-icon-180x180-copy-3" fill="#FFFFFF">
            <path d="M71.4217938,147 L38.0093839,147 C33.5859233,147 30,143.411539 30,138.990616 L30,34.0093839 C30,32.5252246 30.4039662,31.1353498 31.1078025,29.9435682 C47.7033898,52.9863243 69.0693267,74.8283539 90.4352646,74.8283539 C111.83149,74.8283539 133.227717,52.9243547 149.833278,29.8455659 C150.573517,31.0591388 151,32.484758 151,34.0093839 L151,138.990616 C151,143.414077 147.411539,147 142.990616,147 L108.578206,147 C106.741306,138.427326 99.1212442,132 90,132 C80.8787558,132 73.2586942,138.427326 71.4217938,147 Z M123.5,126 C128.746705,126 133,118.836556 133,110 C133,101.163444 128.746705,94 123.5,94 C118.253295,94 114,101.163444 114,110 C114,118.836556 118.253295,126 123.5,126 Z M58.5,126 C63.7467051,126 68,118.836556 68,110 C68,101.163444 63.7467051,94 58.5,94 C53.2532949,94 49,101.163444 49,110 C49,118.836556 53.2532949,126 58.5,126 Z" id="Combined-Shape"></path>
            <path d="M90,155.301479 C80.4405457,155.301479 79,154.749647 79,151 C79,144.924868 83.9248678,140 90,140 C96.0751322,140 101,144.924868 101,151 C101,154.749647 99.5594543,155.301479 90,155.301479 L90,155.301479 Z" id="Path"></path>
        </g>
    </g>
</svg>